<?xml version="1.0" standalone="no"?>
<!DOCTYPE svg PUBLIC "-//W3C//DTD SVG 20010904//EN"
 "http://www.w3.org/TR/2001/REC-SVG-20010904/DTD/svg10.dtd">
<svg version="1.0" xmlns="http://www.w3.org/2000/svg"
 width="100.000000pt" height="100.000000pt" viewBox="0 0 100.000000 100.000000"
 preserveAspectRatio="xMidYMid meet">

<g transform="translate(0.000000,100.000000) scale(0.100000,-0.100000)"
fill="#000000" stroke="none">
<path d="M52 908 c-17 -17 -17 -619 0 -636 17 -17 879 -17 896 0 17 17 17 619
0 636 -17 17 -879 17 -896 0z m868 -258 l0 -230 -420 0 -420 0 0 230 0 230
420 0 420 0 0 -230z m-64 -301 c10 -17 -13 -36 -27 -22 -12 12 -4 33 11 33 5
0 12 -5 16 -11z"/>
<path d="M542 803 c-5 -10 -35 -87 -67 -171 -39 -105 -54 -157 -47 -164 6 -6
15 -8 20 -4 14 9 134 334 127 346 -9 15 -23 12 -33 -7z"/>
<path d="M306 705 c-25 -31 -46 -61 -46 -65 0 -16 92 -121 103 -117 21 7 17
24 -19 70 l-37 47 37 47 c20 26 35 51 33 57 -8 24 -28 13 -71 -39z"/>
<path d="M625 750 c-7 -12 -2 -22 38 -72 l30 -38 -37 -47 c-36 -46 -40 -63
-19 -70 11 -4 103 101 103 117 0 12 -90 120 -100 120 -5 0 -12 -4 -15 -10z"/>
<path d="M380 200 c0 -17 -7 -20 -40 -20 -50 0 -83 -29 -78 -68 l3 -27 235 0
235 0 3 27 c5 39 -28 68 -78 68 -33 0 -40 3 -40 20 0 19 -7 20 -120 20 -113 0
-120 -1 -120 -20z"/>
</g>
</svg>
